<?xml version="1.0" encoding="utf-8"?>
<!-- Generator: Adobe Illustrator 22.1.0, SVG Export Plug-In . SVG Version: 6.00 Build 0)  -->
<svg version="1.1" id="Capa_1" xmlns="http://www.w3.org/2000/svg" xmlns:xlink="http://www.w3.org/1999/xlink" x="0px" y="0px"
	 width="295.3px" height="295.3px" viewBox="0 0 295.3 295.3" style="enable-background:new 0 0 295.3 295.3;" xml:space="preserve"
	>
<style type="text/css">
	.st0{fill:#BBBBBB;}
</style>
<path id="XMLID_49_" class="st0" d="M291.4,142.4l-33.1-25.2c-3-2.3-7-2.7-10.4-1c-3.4,1.7-5.5,5.1-5.5,8.9v15.4h-9.8v-15.6
	c0-5.5-4.4-9.9-9.9-9.9H203V78.3c0-5.5-4.4-9.9-9.9-9.9h-30.8V57.9h8.3c5.5,0,9.9-4.4,9.9-9.9s-4.4-9.9-9.9-9.9h-63.9
	c-5.5,0-9.9,4.4-9.9,9.9s4.4,9.9,9.9,9.9h8.3v10.5H76.7c-5.5,0-9.9,4.4-9.9,9.9v19.3H47.5c-5.5,0-9.9,4.4-9.9,9.9v22.6H19.8v-28.1
	c0-5.5-4.4-9.9-9.9-9.9c-5.5,0-9.9,4.4-9.9,9.9v103.5c0,5.5,4.4,9.9,9.9,9.9c5.5,0,9.9-4.4,9.9-9.9v-28.1h17.8v23.2
	c0,5.5,4.4,9.9,9.9,9.9h24.9l34.9,43c1.9,2.3,4.7,3.7,7.7,3.7h107.7c5.5,0,9.9-4.4,9.9-9.9v-13.1h9.8v13.1c0,3.9,2.2,7.4,5.8,9
	c1.3,0.6,2.7,0.9,4.1,0.9c2.3,0,4.6-0.8,6.4-2.4l33.1-28.4c2.2-1.9,3.5-4.6,3.5-7.5v-68.7C295.3,147.2,293.9,144.2,291.4,142.4z"/>
</svg>
