<?xml version="1.0" encoding="utf-8"?>
<!-- Generator: Adobe Illustrator 22.1.0, SVG Export Plug-In . SVG Version: 6.00 Build 0)  -->
<svg version="1.1" id="Layer_4" xmlns="http://www.w3.org/2000/svg" xmlns:xlink="http://www.w3.org/1999/xlink" x="0px" y="0px"
	 width="512px" height="512px" viewBox="0 0 512 512" style="enable-background:new 0 0 512 512;" xml:space="preserve">
<style type="text/css">
	.st0{fill:#BBBBBB;}
</style>
<path class="st0" d="M451.7,299.4l53.9-26.3l-50.1-33l43.8-41l-57.6-16.8l29.7-52.1l-60,0.9l13-58.6l-57,18.5l-4.8-59.8l-49.1,34.6
	L291.3,10l-36.7,47.5L217,10.8L195.9,67l-49.7-33.5l-3.6,59.9L85.2,75.9l14.2,58.3l-60,0.3L70.2,186L13,204l44.6,40.1L8.2,278.2
	l54.4,25.2l-37.2,47.1l59.5,8l-21.6,56l59.2-9.8l-4.2,59.9l53.7-26.9l13.7,58.4l43.4-41.5l30.3,51.8l29.2-52.4l44.2,40.6l12.5-58.7
	l54.2,25.8l-5.4-59.8l59.4,8.6l-23-55.5l59.3-9.2L451.7,299.4z M275.5,121.9c5.9-3.3,12.4-5.9,19.3-7.7c7-1.8,14.8-2.7,23.5-2.7
	c10.9,0,20.7,1.9,29.2,5.8c8.6,3.8,15.2,9.3,20,16.4c4.7,7.1,7.1,15.1,7.1,23.9c0,6.6-0.8,12.7-2.5,18.3s-4.2,11.1-7.7,16.6
	c-3.5,5.4-8.1,11.1-13.8,17.1c-5.7,6-17.9,17.4-36.6,34.1v1.2h63.8v37.6H255.5v-30l41.2-41.6c11.8-12.3,19.5-20.7,23.1-25.2
	s6.1-8.4,7.6-11.6c1.4-3.2,2.1-6.6,2.1-10.2c0-4.4-1.4-7.8-4.3-10.4c-2.8-2.5-6.8-3.8-12-3.8c-5.3,0-10.7,1.5-16.1,4.6
	c-5.4,3-11.6,7.5-18.4,13.4l-25-29.3C262.3,130.8,269.6,125.3,275.5,121.9z M177.6,114h41.1v168.6h-46.3v-89.3
	c0-10.8,0.2-20.8,0.7-29.8c-2.8,3.5-6.4,7.1-10.6,10.8l-19.1,15.8L119.8,161L177.6,114z M258.3,407.1
	c-73.2,0-135.7-42.5-160.5-102.4h70.3c19.8,26,52.8,43,90.1,43s70.3-17,90.1-43h70.3C394,364.6,331.5,407.1,258.3,407.1z"/>
</svg>
