<?xml version="1.0" encoding="utf-8"?>
<!-- Generator: Adobe Illustrator 22.1.0, SVG Export Plug-In . SVG Version: 6.00 Build 0)  -->
<svg version="1.1" id="Capa_1" xmlns="http://www.w3.org/2000/svg" xmlns:xlink="http://www.w3.org/1999/xlink" x="0px" y="0px"
	 viewBox="0 0 512 512" style="enable-background:new 0 0 512 512;" xml:space="preserve">
<path fill="#bbbbbb" d="M246.4,62.5L210,95.9l-69.8-72.8C122,7.9,91.7,7.9,73.5,23.1c-6.1,9.1-12.1,21.2-12.1,33.4s6.1,24.3,12.1,33.4
	l72.8,72.8L31,274.9L225.1,469l212.3-215.4C437.5,253.6,246.4,62.5,246.4,62.5z M94.7,68.6c0-3-3-9.1-3-12.1c0-3,3-9.1,3-12.1
	c6.1-3,18.2-3,24.3,0l72.8,72.8l-24.3,21.2C167.5,138.4,94.7,68.6,94.7,68.6z M94.7,253.6L210,138.4l36.4,36.4c3,3,6.1,3,12.1,3
	c6.1,0,9.1,0,12.1-3c3-6.1,3-15.2-3-21.2l-36.4-36.4l12.1-12.1L395,253.6C395,253.6,94.7,253.6,94.7,253.6z"/>
<path fill="#bbbbbb" d="M440.5,284c0,0-45.5,142.6-45.5,166.8c0,24.3,21.2,45.5,45.5,45.5c24.3,0,45.5-21.2,45.5-45.5
	C486,426.5,440.5,284,440.5,284z"/>
</svg>
