<?xml version="1.0" encoding="utf-8"?>
<!-- Generator: Adobe Illustrator 22.1.0, SVG Export Plug-In . SVG Version: 6.00 Build 0)  -->
<svg version="1.1" id="Layer_3" xmlns="http://www.w3.org/2000/svg" xmlns:xlink="http://www.w3.org/1999/xlink" x="0px" y="0px"
	 viewBox="0 0 512 512" style="enable-background:new 0 0 512 512;" xml:space="preserve">
<style type="text/css">
	.st0{fill:#BBBBBB;}
</style>
<path class="st0" d="M494.8,66.5c0,0,1-14-14-14s-269,0-269,0s-53,1-86,37s-112,134-112,134s-4,5-4,17s0,70,0,70s154-25,210,153h276
	L494.8,66.5z M469,287c0,6.2-5.1,11.4-11.4,11.4h-67.9c-6.2,0-11.4-5.1-11.4-11.4v0c0-6.2,5.1-11.4,11.4-11.4h67.9
	C463.9,275.6,469,280.7,469,287L469,287z M458.5,238.2c0,0-363-1.2-388.5-1.2s-10.2-25-10.2-25s39-47.5,72.5-87.8
	s90.2-40.5,90.2-40.5L462,83.5c10.8,0,8.8,9.8,8.8,9.8s0.2,118.2,0.2,132.5S458.5,238.2,458.5,238.2z"/>
</svg>
